<svg width="24" height="24" viewBox="0 0 24 24" fill="none" xmlns="http://www.w3.org/2000/svg">
<g id="Frame">
<path id="Vector" fill-rule="evenodd" clip-rule="evenodd" d="M20.2853 2.00815C19.8927 2.06442 19.566 2.24506 19.3298 2.53656C19.2977 2.57616 16.7037 6.27711 13.5655 10.7609C10.4272 15.2447 7.84686 18.9247 7.83138 18.9387C7.7772 18.9879 7.68465 18.9878 7.63532 18.9386C7.62135 18.9246 6.94572 18.0277 6.1339 16.9453C5.05276 15.5039 4.63846 14.9573 4.58527 14.9022C4.32207 14.6296 4.00962 14.486 3.60709 14.4525C3.31658 14.4283 3.01473 14.4956 2.7686 14.6395C2.50308 14.7948 2.29846 15.0032 2.16626 15.2531C2.0106 15.5473 1.95699 15.9373 2.02551 16.2771C2.05602 16.4283 2.13912 16.6264 2.23198 16.7691C2.27275 16.8318 5.12537 20.6396 5.24371 20.7893C5.53985 21.1639 5.87872 21.4405 6.30874 21.6586C6.64598 21.8297 7.00149 21.9352 7.40078 21.9828C7.51772 21.9968 7.94668 21.9966 8.06481 21.9826C8.63509 21.915 9.13272 21.7255 9.5803 21.4057C9.84362 21.2175 10.0897 20.9761 10.2741 20.7253C10.3406 20.6348 21.7244 4.37287 21.7669 4.30763C21.8646 4.15762 21.9326 3.98995 21.9741 3.79661C21.9975 3.68754 22.0036 3.45053 21.9863 3.3199C21.933 2.91681 21.7466 2.5773 21.4484 2.34033C21.235 2.1707 21.0259 2.06994 20.7821 2.0192C20.6812 1.99821 20.3985 1.99192 20.2853 2.00815Z" fill="white"/>
</g>
</svg>
