<svg width="12" height="12" viewBox="0 0 12 12" fill="none" xmlns="http://www.w3.org/2000/svg">
<g clip-path="url(#clip0_6_19)">
<path fill-rule="evenodd" clip-rule="evenodd" d="M4.77843 0.128031C4.29137 0.171783 3.8825 0.527785 3.77735 0.999663C3.75153 1.11554 3.752 1.1046 3.75012 1.63005L3.74837 2.12011L2.0986 2.12354C0.744436 2.12634 0.443193 2.12811 0.417364 2.13342C0.28906 2.15978 0.180215 2.26202 0.138551 2.39531C0.129043 2.42572 0.127334 2.44143 0.127319 2.49839C0.1273 2.57493 0.133876 2.60702 0.160934 2.66237C0.207014 2.75664 0.299851 2.83477 0.400833 2.86426C0.427411 2.87202 0.472171 2.87278 0.980433 2.87405L1.53123 2.87543V2.88679C1.53123 2.89999 2.18517 10.7247 2.19617 10.8432C2.21006 10.9927 2.24394 11.1179 2.30352 11.2398C2.359 11.3534 2.41819 11.4394 2.5002 11.5257C2.67261 11.707 2.89735 11.8242 3.14901 11.8641C3.20171 11.8724 3.32189 11.8728 6.00003 11.8728C8.67818 11.8728 8.79835 11.8724 8.85106 11.8641C9.29417 11.7939 9.64724 11.4814 9.76754 11.053C9.79147 10.9678 9.80053 10.8928 9.8304 10.5336C9.84621 10.3435 9.99632 8.54764 10.164 6.54277C10.3316 4.5379 10.4688 2.89257 10.4688 2.88649V2.87543L11.0196 2.87405C11.5279 2.87278 11.5727 2.87202 11.5992 2.86426C11.7 2.83482 11.793 2.75663 11.8389 2.66283C11.8662 2.60701 11.8728 2.57508 11.8727 2.49839C11.8727 2.44143 11.871 2.42572 11.8615 2.39531C11.8192 2.25995 11.7042 2.15407 11.5752 2.13177C11.556 2.12844 11.0004 2.12568 9.89906 2.12345L8.25169 2.12012L8.24994 1.63006C8.24807 1.10396 8.2486 1.11613 8.22249 0.998391C8.19979 0.896065 8.14896 0.769379 8.09271 0.674948C7.94085 0.419996 7.68547 0.229571 7.40013 0.158502C7.26683 0.1253 7.38088 0.127907 6.02403 0.127067C5.34951 0.126649 4.78899 0.127081 4.77843 0.128031ZM4.83494 0.878487C4.76367 0.886091 4.69953 0.912457 4.64327 0.957279C4.5849 1.00379 4.53993 1.06837 4.51604 1.13999L4.50483 1.17359L4.5035 1.64759L4.50216 2.12159H6.00003H7.4979L7.49657 1.64759L7.49523 1.17359L7.48403 1.13999C7.44229 1.01484 7.34567 0.923315 7.21683 0.886887L7.17843 0.87603L6.02403 0.875411C5.38911 0.87507 4.85402 0.876457 4.83494 0.878487ZM2.28483 2.8834C2.28483 2.90218 2.9427 10.7625 2.94727 10.7983C2.95335 10.846 2.96302 10.8796 2.98166 10.9178C3.0282 11.0133 3.11671 11.0842 3.22563 11.1131L3.26643 11.124H6.00003C8.62635 11.124 8.73504 11.1237 8.76963 11.1153C8.90276 11.083 9.01051 10.9784 9.04351 10.8493C9.05051 10.822 9.13066 9.88095 9.38395 6.85234C9.56616 4.67368 9.71523 2.88756 9.71523 2.88317C9.71523 2.87574 9.45984 2.87519 6.00003 2.87519C2.49747 2.87519 2.28483 2.87566 2.28483 2.8834ZM4.83354 4.75207C4.73887 4.76097 4.64611 4.81138 4.58394 4.88771C4.55211 4.9268 4.51982 4.99161 4.50883 5.03849C4.50038 5.07452 4.50003 5.15165 4.50003 7.00079C4.50003 8.82631 4.50047 8.92746 4.50854 8.9618C4.54213 9.1048 4.66745 9.2221 4.81112 9.24502C4.86139 9.25304 4.94123 9.24848 4.98483 9.2351C5.08922 9.20305 5.18122 9.11914 5.22297 9.01791C5.25336 8.94419 5.25144 9.08845 5.25008 6.97919L5.24883 5.05679L5.2379 5.02156C5.20108 4.90297 5.10896 4.80671 4.99637 4.7692C4.96378 4.75834 4.94672 4.75538 4.88643 4.75014C4.87719 4.74934 4.85339 4.75021 4.83354 4.75207ZM7.08201 4.75255C6.93567 4.76568 6.8048 4.87677 6.7621 5.02411L6.75123 5.06159V6.99839C6.75123 8.64909 6.75223 8.93909 6.758 8.96159C6.78507 9.06722 6.85403 9.15545 6.95043 9.20783C6.99679 9.23301 7.04122 9.245 7.10015 9.24821C7.21935 9.2547 7.31238 9.21897 7.39403 9.13534C7.44364 9.08452 7.47638 9.02632 7.49147 8.96208C7.49962 8.92737 7.50003 8.83157 7.50003 7.00079C7.50003 5.15165 7.49969 5.07452 7.49124 5.03849C7.47368 4.96363 7.42295 4.8832 7.36191 4.8335C7.28432 4.77031 7.18956 4.74291 7.08201 4.75255Z" fill="#EB5757"/>
</g>
<defs>
<clipPath id="clip0_6_19">
<rect width="12" height="12" fill="white"/>
</clipPath>
</defs>
</svg>
